<?xml version="1.0" encoding="utf-8"?>
<!-- Generator: Adobe Illustrator 16.0.0, SVG Export Plug-In . SVG Version: 6.00 Build 0)  -->
<!DOCTYPE svg PUBLIC "-//W3C//DTD SVG 1.1//EN" "http://www.w3.org/Graphics/SVG/1.1/DTD/svg11.dtd">
<svg version="1.1" id="Layer_1" xmlns="http://www.w3.org/2000/svg" xmlns:xlink="http://www.w3.org/1999/xlink" x="0px" y="0px"
	 width="204.073px" height="204.073px" viewBox="0 0 204.073 204.073" enable-background="new 0 0 204.073 204.073"
	 xml:space="preserve">
<g>
	<g>
		<path fill="#2E3192" d="M35.07,101.848c10.447-3.163,21.022-5.811,31.712-8.021c5.396-1.116,10.826-2.075,16.266-2.96
			c2.426-0.396,4.857-0.752,7.289-1.103c2.602-0.362,2.436-0.342-0.496,0.06c1.831-0.239,3.664-0.456,5.498-0.673
			c22.468-2.654,45.141-3.47,67.75-3c-6.476-11.285-12.952-22.57-19.428-33.856c-2.014,4.188,3.762-3.515,0.333-0.22
			c5.573-5.354-1.841,1.22-3.628,2.902c-2.662,2.508-5.41,4.923-8.164,7.327c-6.074,5.304-12.291,10.442-18.369,15.743
			c-12.072,10.527-23.789,21.435-35.654,32.193c-9.088,8.241-8.352,23.469,0,31.82c8.985,8.984,22.742,8.231,31.82,0
			c12.324-11.177,24.515-22.48,37.056-33.417c6.073-5.296,12.285-10.433,18.356-15.732c1.38-1.205,2.742-2.43,4.104-3.657
			c0.934-0.841,5.544-4.188,0.637-0.967c5.025-3.3,9.734-7.809,12.365-13.28c7.342-15.27-1.428-33.482-19.428-33.856
			c-46.981-0.977-94.886,3.651-139.981,17.304C11.379,62.006,4.078,74.083,7.393,86.133C10.581,97.726,23.334,105.4,35.07,101.848
			L35.07,101.848z"/>
	</g>
</g>
</svg>
