<?xml version="1.0" encoding="utf-8"?>
<!-- Generator: Adobe Illustrator 16.0.0, SVG Export Plug-In . SVG Version: 6.00 Build 0)  -->
<!DOCTYPE svg PUBLIC "-//W3C//DTD SVG 1.1//EN" "http://www.w3.org/Graphics/SVG/1.1/DTD/svg11.dtd">
<svg version="1.1" id="Layer_1" xmlns="http://www.w3.org/2000/svg" xmlns:xlink="http://www.w3.org/1999/xlink" x="0px" y="0px"
	 width="204.073px" height="204.073px" viewBox="0 0 204.073 204.073" enable-background="new 0 0 204.073 204.073"
	 xml:space="preserve">
<g>
	<g>
		<path fill="#FFFFFF" d="M103.767,59.964c-1.863,2.877-3.803,5.691-5.814,8.466c-0.556,0.767-4.106,5.386-0.635,0.922
			c-1.059,1.361-2.146,2.699-3.231,4.038c-4.37,5.387-8.965,10.59-13.553,15.79c-10.47,11.866-20.835,23.793-29.985,36.729
			c-7.096,10.031-1.819,24.991,8.071,30.784c11.275,6.604,23.717,1.92,30.784-8.071c1-1.413,2.012-2.814,3.037-4.209
			c3.48-4.729-2.931,3.679,0.703-0.941c2.147-2.73,4.377-5.396,6.617-8.05c4.491-5.319,9.138-10.507,13.743-15.727
			c10.38-11.764,20.577-23.83,29.118-37.019c6.675-10.306,2.141-24.802-8.071-30.784C123.604,45.479,110.42,49.69,103.767,59.964
			L103.767,59.964z"/>
	</g>
</g>
<g>
	<g>
		<path fill="#FFFFFF" d="M44.829,63.248c19.212,34.287,38.948,68.276,58.695,102.258c6.151,10.587,20.225,14.257,30.784,8.071
			c10.593-6.205,14.236-20.176,8.071-30.784c-19.746-33.981-39.482-67.97-58.695-102.258C77.698,29.852,63.334,26.352,52.9,32.464
			C42.185,38.74,38.832,52.546,44.829,63.248L44.829,63.248z"/>
	</g>
</g>
</svg>
