<?xml version="1.0" encoding="utf-8"?>
<!-- Generator: Adobe Illustrator 16.0.0, SVG Export Plug-In . SVG Version: 6.00 Build 0)  -->
<!DOCTYPE svg PUBLIC "-//W3C//DTD SVG 1.1//EN" "http://www.w3.org/Graphics/SVG/1.1/DTD/svg11.dtd">
<svg version="1.1" id="Layer_1" xmlns="http://www.w3.org/2000/svg" xmlns:xlink="http://www.w3.org/1999/xlink" x="0px" y="0px"
	 width="931px" height="410px" viewBox="0 0 931 410" enable-background="new 0 0 931 410" xml:space="preserve">
<g>
	<g>
		<path d="M94.356,328.428c40.935-26.139,82.408-51.454,125.053-74.718c22.083-12.047,44.493-23.495,67.238-34.24
			c11.506-5.436,23.112-10.657,34.802-15.687c1.407-0.606,2.818-1.206,4.229-1.806c-5.79,2.461-0.84,0.357,0.281-0.111
			c2.835-1.185,5.678-2.35,8.523-3.509c6.181-2.516,12.393-4.954,18.623-7.341c48.688-18.647,99.028-33.057,150.437-41.87
			c6.288-1.077,12.594-2.049,18.908-2.953c1.229-0.176,6.773-0.925,0.363-0.067c1.589-0.212,3.18-0.414,4.771-0.615
			c3.722-0.471,7.449-0.897,11.179-1.307c13.439-1.475,26.928-2.493,40.433-3.142c27.753-1.333,55.584-0.775,83.272,1.481
			c6.833,0.557,13.653,1.251,20.465,2.025c3.438,0.391,6.87,0.823,10.301,1.27c-6.066-0.789-0.152-0.011,0.912,0.14
			c2.308,0.325,4.611,0.672,6.914,1.021c15.247,2.315,30.398,5.233,45.445,8.605c31.789,7.126,63.007,16.684,93.513,28.091
			c11.5,4.3,24.645-4.687,27.678-15.715c3.473-12.625-4.238-23.386-15.715-27.678c-58.34-21.815-119.011-35.949-181.008-41.998
			c-56.201-5.484-112.632-2.85-168.386,5.664c-103.5,15.805-202.014,55.525-294.021,104.487
			c-46.851,24.932-92.208,52.562-136.923,81.115c-10.316,6.587-14.455,19.889-8.072,30.784
			C69.584,330.619,84.009,335.035,94.356,328.428L94.356,328.428z"/>
	</g>
</g>
</svg>
