<?xml version="1.0" encoding="utf-8"?>
<!-- Generator: Adobe Illustrator 16.0.0, SVG Export Plug-In . SVG Version: 6.00 Build 0)  -->
<!DOCTYPE svg PUBLIC "-//W3C//DTD SVG 1.1//EN" "http://www.w3.org/Graphics/SVG/1.1/DTD/svg11.dtd">
<svg version="1.1" id="Layer_1" xmlns="http://www.w3.org/2000/svg" xmlns:xlink="http://www.w3.org/1999/xlink" x="0px" y="0px"
	 width="204.074px" height="204.073px" viewBox="0 0 204.074 204.073" enable-background="new 0 0 204.074 204.073"
	 xml:space="preserve">
<g>
	<g>
		<path fill="#FFFFFF" d="M110.06,157.569c-1.575-7.2-4.518-13.96-6.812-20.942c-2.396-7.293-3.69-15.038-4.742-22.623
			c0.357,2.658,0.715,5.316,1.072,7.975c-1.499-11.704-1.806-23.47-0.277-35.188c-0.357,2.658-0.715,5.316-1.072,7.975
			c1.03-7.005,2.713-13.796,5.337-20.379c-1.009,2.389-2.017,4.777-3.024,7.166c0.977-2.242,2.035-4.422,3.213-6.564
			c0.658-1.196,1.404-2.34,2.152-3.48c2.938-4.479-4.922,5.979-1.567,1.979c1.293-1.543,2.772-2.912,4.303-4.213
			c-8.027,6.823-2.289,1.896,0.671,0.53c-2.389,1.008-4.777,2.016-7.166,3.023c2.452-1.012,4.918-1.682,7.543-2.062
			c-2.658,0.357-5.316,0.714-7.975,1.071c2.795-0.29,5.517-0.229,8.304,0.118c-2.658-0.357-5.316-0.715-7.975-1.072
			c3.587,0.574,6.991,1.579,10.369,2.907c-2.389-1.009-4.777-2.017-7.166-3.024c0.921,0.377,1.832,0.777,2.732,1.202
			c7.638,3.478,14.724,5.333,23.117,3.024c7.498-2.063,14-7.081,17.929-13.787c7.625-13.017,4.123-34.268-10.763-41.046
			c-10.557-4.806-19.114-7.443-30.691-8.465c-10.42-0.92-20.303,2.497-29.555,6.769c-17.858,8.246-28.714,28.226-34.48,45.995
			c-5.557,17.119-6.261,36.4-4.366,54.198c1.096,10.29,2.69,20.55,5.237,30.584c2.096,8.259,5.969,15.931,7.795,24.279
			c3.495,15.978,21.783,25.112,36.904,20.953C105.488,189.967,113.551,173.53,110.06,157.569L110.06,157.569z"/>
	</g>
</g>
</svg>
