<?xml version="1.0" encoding="utf-8"?>
<!-- Generator: Adobe Illustrator 16.0.0, SVG Export Plug-In . SVG Version: 6.00 Build 0)  -->
<!DOCTYPE svg PUBLIC "-//W3C//DTD SVG 1.1//EN" "http://www.w3.org/Graphics/SVG/1.1/DTD/svg11.dtd">
<svg version="1.1" id="Layer_1" xmlns="http://www.w3.org/2000/svg" xmlns:xlink="http://www.w3.org/1999/xlink" x="0px" y="0px"
	 width="204.073px" height="204.073px" viewBox="0 0 204.073 204.073" enable-background="new 0 0 204.073 204.073"
	 xml:space="preserve">
<g>
	<g>
		<path d="M103.766,59.964c-1.862,2.877-3.803,5.691-5.813,8.466c-0.556,0.767-4.106,5.386-0.636,0.922
			c-1.059,1.361-2.145,2.699-3.23,4.038c-4.37,5.387-8.965,10.59-13.553,15.79c-10.47,11.866-20.835,23.793-29.986,36.729
			c-7.096,10.031-1.818,24.991,8.072,30.784c11.274,6.605,23.717,1.92,30.784-8.071c0.999-1.413,2.011-2.814,3.037-4.209
			c3.479-4.729-2.931,3.679,0.703-0.941c2.147-2.73,4.376-5.396,6.616-8.05c4.492-5.319,9.139-10.507,13.744-15.727
			c10.379-11.765,20.577-23.83,29.119-37.019c6.674-10.306,2.14-24.803-8.072-30.784C123.604,45.479,110.42,49.69,103.766,59.964
			L103.766,59.964z"/>
	</g>
</g>
<g>
	<g>
		<path d="M44.829,63.248c19.213,34.287,38.948,68.276,58.694,102.258c6.152,10.587,20.226,14.257,30.785,8.071
			c10.592-6.205,14.236-20.176,8.072-30.784c-19.747-33.981-39.483-67.971-58.695-102.258c-5.987-10.684-20.352-14.184-30.784-8.071
			C42.185,38.74,38.832,52.546,44.829,63.248L44.829,63.248z"/>
	</g>
</g>
</svg>
