<?xml version="1.0" encoding="utf-8"?>
<!-- Generator: Adobe Illustrator 16.0.0, SVG Export Plug-In . SVG Version: 6.00 Build 0)  -->
<!DOCTYPE svg PUBLIC "-//W3C//DTD SVG 1.1//EN" "http://www.w3.org/Graphics/SVG/1.1/DTD/svg11.dtd">
<svg version="1.1" id="Layer_1" xmlns="http://www.w3.org/2000/svg" xmlns:xlink="http://www.w3.org/1999/xlink" x="0px" y="0px"
	 width="204.074px" height="204.073px" viewBox="0 0 204.074 204.073" enable-background="new 0 0 204.074 204.073"
	 xml:space="preserve">
<g>
	<g>
		<path fill="#2E3192" d="M102.827,159.563c-1.452-6.637-4.062-12.894-6.271-19.298c-2.338-6.776-3.682-13.911-4.809-20.976
			c-0.905-5.676,0.596,5.11-0.078-0.633c-0.195-1.671-0.338-3.348-0.479-5.024c-0.284-3.366-0.395-6.745-0.438-10.122
			c-0.043-3.367,0.109-6.732,0.34-10.091c0.114-1.665,0.303-3.324,0.492-4.982c-0.746,6.529,0.276-0.864,0.536-2.161
			c0.637-3.184,1.533-6.306,2.535-9.391c0.38-1.17,2.501-6.22,0.013-0.507c0.584-1.341,1.255-2.642,1.928-3.939
			c0.883-1.702,6.189-9.083,1.63-3.292c0.768-0.975,1.621-1.874,2.477-2.771c1.239-1.297,5.801-4.575-0.077-0.286
			c0.916-0.668,1.904-1.229,2.891-1.784c3.768-2.125-5.339,1.962-1.29,0.482c1.052-0.384,2.146-0.635,3.233-0.885
			c4.298-0.987-5.916,0.526-1.449,0.241c1.186-0.075,2.375-0.012,3.56,0.05c4.624,0.237-5.714-1.012-1.027-0.099
			c1.31,0.256,2.591,0.64,3.868,1.019c0.892,0.279,1.775,0.584,2.649,0.914c-3.124-1.377-3.557-1.557-1.297-0.537
			c11.162,5.083,24.124,3.299,30.784-8.071c5.72-9.763,3.093-25.702-8.071-30.785c-9.068-4.128-16.96-6.563-26.906-7.441
			c-9.044-0.798-17.712,2.025-25.77,5.745c-16.126,7.446-25.826,25.469-31.034,41.513c-5.366,16.534-5.925,35.036-4.098,52.204
			c1.025,9.627,2.587,19.204,4.969,28.59c2.097,8.26,5.97,15.931,7.796,24.279c2.621,11.983,16.338,18.834,27.678,15.715
			C99.399,183.861,105.445,171.534,102.827,159.563L102.827,159.563z"/>
	</g>
</g>
</svg>
